<?xml version="1.0" standalone="no"?>
<!DOCTYPE svg PUBLIC "-//W3C//DTD SVG 20010904//EN"
 "http://www.w3.org/TR/2001/REC-SVG-20010904/DTD/svg10.dtd">
<svg version="1.0" xmlns="http://www.w3.org/2000/svg"
 width="300.000000pt" height="113.000000pt" viewBox="0 0 300.000000 113.000000"
 preserveAspectRatio="xMidYMid meet">
<metadata>
Created by potrace 1.10, written by Peter Selinger 2001-2011
</metadata>
<g transform="translate(0.000000,113.000000) scale(0.100000,-0.100000)"
fill="#000000" stroke="none">
<path d="M396 642 l-184 -368 29 -47 29 -47 368 0 367 1 27 45 28 45 -185 369
-185 370 -55 0 -55 0 -184 -368z m373 -69 l131 -263 -265 0 -265 0 132 265
c73 145 133 263 134 262 1 -1 61 -120 133 -264z"/>
<path d="M1150 405 l0 -225 50 0 49 0 3 141 3 141 86 -138 85 -139 57 -3 57
-3 0 226 0 225 -50 0 -50 0 0 -137 0 -138 -83 137 -82 137 -62 1 -63 0 0 -225z"/>
<path d="M1650 405 l0 -225 50 0 50 0 0 225 0 225 -50 0 -50 0 0 -225z"/>
<path d="M1850 405 l0 -225 50 0 50 0 1 143 1 142 28 -100 c16 -55 33 -119 40
-142 l11 -43 52 0 52 0 34 133 c18 72 37 139 42 147 5 9 9 -48 9 -132 l0 -148
45 0 45 0 0 225 0 226 -77 -3 -77 -3 -31 -125 c-17 -69 -34 -132 -37 -140 -5
-14 -14 13 -69 203 l-20 67 -74 0 -75 0 0 -225z"/>
<path d="M2390 405 l0 -225 201 0 200 0 -3 42 -3 43 -147 3 -148 3 0 49 0 50
130 0 130 0 0 45 0 45 -130 0 -130 0 0 45 0 45 150 0 150 0 0 40 0 40 -200 0
-200 0 0 -225z"/>
</g>
</svg>
